<?xml version="1.0" encoding="UTF-8"?>
<!DOCTYPE svg PUBLIC "-//W3C//DTD SVG 1.1//EN" "http://www.w3.org/Graphics/SVG/1.1/DTD/svg11.dtd">
<!-- Creator: CorelDRAW X7 -->
<svg 
    xmlns="http://www.w3.org/2000/svg" 
    xml:space="preserve" 
    width="8.26772in" 
    height="11.6929in" 
    version="1.1" 
    style="shape-rendering:geometricPrecision; text-rendering:geometricPrecision; image-rendering:optimizeQuality; fill-rule:evenodd; clip-rule:evenodd"
    viewBox="0 0 8268 11693"
    xmlns:xlink="http://www.w3.org/1999/xlink">
 <defs>
  <style type="text/css">
   <![CDATA[
    .fil0 {fill:#252525}
   ]]>
  </style>
 </defs>
 <g id="Layer_x0020_1">
  <metadata id="CorelCorpID_0Corel-Layer"/>
  <path class="fil0" d="M6869 5343l-1 313c-30,-14 -31,-28 -66,-45 -179,-88 -465,23 -468,398 -1,243 112,436 343,435 112,0 123,-32 191,-64l0 54 190 0 -1 -1173 -188 82zm-3172 -87c-71,27 -94,83 -68,150 20,53 86,85 150,59 121,-50 64,-264 -82,-209zm-2487 728l769 1 1 -180 -768 -1 -2 180zm0 -454l42 3 686 -1 42 -1 0 -178 -770 -2 0 179zm0 906l42 3 686 -1 42 -1 0 -178 -770 -2 0 179zm2427 -2l190 0 0 -839 -190 0 0 839zm-445 -1099l-1 42 0 1057 189 0 0 -1181c-67,15 -122,59 -188,82zm1716 20l0 236 -127 4 0 163 127 3c0,133 -16,428 5,540 37,208 335,145 357,94l25 -155c-67,21 -104,40 -179,20 -36,-77 -19,-398 -19,-502l192 -3 0 -156 -192 -4 0 -343c-38,11 -63,29 -101,46 -37,17 -69,23 -88,57zm-759 847c-46,23 -92,68 -129,99 72,167 547,220 628,-22 124,-372 -484,-330 -420,-488 79,-110 218,-2 281,23 42,-31 80,-68 122,-94 -14,-45 -26,-46 -67,-72 -165,-104 -435,-81 -506,74 -34,75 -20,166 23,224 83,112 291,126 367,200 76,73 -3,133 -91,135 -115,3 -140,-37 -208,-79zm-1720 -528l-1 -79 -189 0 0 839 189 0c0,-138 1,-276 0,-414 0,-137 16,-251 164,-254 149,-3 163,118 163,254 0,138 0,276 0,414l190 0c0,-158 19,-574 -31,-693 -58,-139 -232,-183 -370,-140 -68,21 -71,47 -115,73zm3680 640c-14,-24 -33,-41 -54,-65 -26,-30 -33,-41 -69,-57 -99,139 -348,95 -364,-105l553 -2c20,-251 -32,-422 -235,-484 -624,-189 -704,909 -72,840 125,-14 179,-60 241,-127zm-487 -395l372 3c-19,-107 -69,-168 -189,-164 -113,4 -169,58 -183,161zm1025 -140c-197,78 -169,540 114,478 145,-32 107,-148 107,-303 1,-86 10,-119 -46,-156 -52,-34 -116,-43 -175,-19z"/>
 </g>
</svg>
